<svg xmlns="http://www.w3.org/2000/svg" width="489" height="648" aria-hidden="true" class="svg-inline--fa fa-crow fa-w-20" data-icon="crow" data-prefix="fas" focusable="false" opacity=".33" role="img"><g><title>Layer 1</title><g id="svg_1" stroke="null" transform="rotate(7.40895 373.485 375.045)"><switch stroke="null" transform="translate(3 -8) translate(-1 -2) translate(-13 65) translate(6.21294 5.46086) translate(30.8511 9.57447) translate(9.57447 1.06383) translate(0 -1.06383) translate(-14.7826 -12.1739) translate(81.7391 35.6522) translate(0.869565 1.73913) translate(-186.28 -29.1396) translate(10.4348 18.2609) translate(32.1739 -12.1739) translate(-15.6522 0) translate(32.3077 -18.4615) translate(-9.24131 5.33599) translate(-24.6154 -15.3846) translate(56.9231 3.07692) translate(-189.231 84.6154) translate(210.769 -10.7692) translate(400 253) translate(-77 -57) translate(271.75 0) translate(0 192.758) translate(194.75 141.242) scale(3.89231 3.89231) translate(-194.75 -141.242) translate(64.7362 -2.3592) scale(0.543589 0.543589) translate(-64.7362 2.3592) translate(97.1787 23.2502) scale(1.34622 1.34622) translate(-97.1787 -23.2502) translate(38.0044 239.694) scale(1.1325 1.1325) translate(-38.0044 -239.694)"><g id="svg_6" stroke="null"><g id="svg_8" stroke="null"><path id="svg_10" stroke="null" d="m76.3,55.6l2.2,8.1c1.3,4.8 -1.1,9.8 -5.7,11.8c-7.2,3.1 -14.8,4.7 -22.6,4.7c-7.9,0 -15.4,-1.6 -22.5,-4.7c-4.6,-2 -7,-7 -5.7,-11.8l2.2,-8.2c-18.8,3.4 -21.7,10.4 -21.7,15.4c0,6.7 1.8,23.8 47.5,23.8s47.5,-17.1 47.5,-23.8c0,-5 -2.8,-12 -21.2,-15.3z"/><path id="svg_11" stroke="null" d="m30,69.9c12.7,5.6 27.4,5.6 40.2,0c1.8,-0.8 2.8,-2.7 2.3,-4.6l-6.3,-23.7c-1.9,-7.3 -1.7,-15 0.6,-22.1c1.2,-3.7 3.1,-7.2 5.6,-10.2c1.5,-1.8 -0.3,-4.4 -2.5,-3.7l-6.2,2c-5.2,1.7 -9.8,4.7 -13.5,8.7l-6.5,7.1c-4.3,4.6 -7.4,10.3 -9,16.4l-6.8,25.6c-0.6,1.8 0.4,3.7 2.1,4.5z"/></g></g></switch><text id="svg_12" x="266.184" y="365.423" fill="#000" stroke="null" font-family="'Helvetica Neue', Helvetica, Arial-Unicode, Arial, Sans-serif" font-size="5" font-weight="bold" transform="matrix(3.22573 0 0 3.22573 -386.442 -454.691)">Created by Alice Design</text><text id="svg_13" x="266.184" y="370.423" fill="#000" stroke="null" font-family="'Helvetica Neue', Helvetica, Arial-Unicode, Arial, Sans-serif" font-size="5" font-weight="bold" transform="matrix(3.22573 0 0 3.22573 -386.442 -454.691)">from the Noun Project</text></g><rect id="svg_3" width="26.452" height="75.484" x="269.77" y="307.476" fill="currentColor" stroke="null" rx="10" transform="rotate(12 282.996 345.218)"/><rect id="svg_4" width="26.452" height="75.484" x="160.082" y="282.481" fill="currentColor" stroke="null" rx="10" transform="rotate(12 173.308 320.223)"/><rect id="svg_5" width="26.452" height="56.769" x="176.098" y="372.991" fill="currentColor" stroke="null" rx="10" transform="rotate(45 189.324 401.377)"/><rect id="svg_7" width="26.452" height="56.769" x="174.885" y="397.705" fill="currentColor" stroke="null" rx="10" transform="rotate(-45 188.111 426.09)"/><path id="svg_9" fill="currentColor" stroke="null" d="m204.34782,457.91306l197.39131,-1.39132" opacity="NaN"/><path id="svg_15" fill="none" stroke="null" d="m263.47826,482.26088c123.47826,-42.6087 103.47826,-89.56522 103.47826,-90.08697" opacity="NaN"/><path id="svg_17" fill="none" stroke="null" d="m770.58698,382.08695" opacity="NaN"/><g><path stroke="null" d="m349.39497,519.23199c-22.92157,-5.23171 -37.31453,-28.13599 -32.08397,-51.05641c0.85044,-3.72212 -1.47848,-7.42926 -5.20175,-8.2797c-3.72097,-0.84814 -7.42926,1.47963 -8.28085,5.2029c-2.80945,12.30834 -1.34365,24.61208 3.41444,35.35552c-0.32151,0.22586 -0.63956,0.46786 -0.92765,0.7571c-28.75481,28.75365 -66.95435,44.58937 -107.56116,44.58937c-40.60682,0 -78.8052,-15.83571 -107.55886,-44.58937c-0.28809,-0.28809 -0.60499,-0.53009 -0.92765,-0.75825c4.75694,-10.74114 6.22158,-23.04602 3.41213,-35.35437c-0.85044,-3.72327 -4.55643,-6.05334 -8.2797,-5.2029c-3.72327,0.84929 -6.05219,4.55643 -5.2029,8.2797c5.23171,22.92041 -9.1601,45.8247 -32.08051,51.05641c-3.72327,0.84929 -6.05219,4.55643 -5.2029,8.27854c0.73175,3.20471 3.58038,5.37691 6.73438,5.37691c0.50934,0 1.0279,-0.05647 1.54416,-0.17401c13.10232,-2.99152 24.09236,-10.34818 31.8051,-20.17895c31.17937,30.38079 72.19182,47.0946 115.75443,47.0946c43.56492,0 84.57737,-16.71266 115.75558,-47.0946c7.71274,9.83077 18.70278,17.18858 31.80741,20.17895c0.51741,0.11869 1.03482,0.17401 1.54416,0.17401c3.15285,0 6.00264,-2.1722 6.73438,-5.37691c0.8539,-3.72212 -1.47617,-7.42926 -5.19829,-8.27854z" transform="rotate(10.5743 198.754 509.675)"/></g></g></svg>